<svg width="38" height="38" viewBox="0 0 38 38" fill="none" xmlns="http://www.w3.org/2000/svg">
<path d="M21.8711 15C21.8711 16.5857 20.5857 17.8711 19 17.8711C17.4143 17.8711 16.1289 16.5857 16.1289 15C16.1289 13.4143 17.4143 12.1289 19 12.1289C20.5857 12.1289 21.8711 13.4143 21.8711 15Z" fill="#C5AC2D"/>
<path d="M25.7144 9.92015C25.5764 9.54616 25.3562 9.20764 25.0701 8.92978C24.7923 8.64368 24.454 8.42349 24.0797 8.28548C23.7762 8.1676 23.3203 8.0273 22.4805 7.98907C21.5721 7.94765 21.2997 7.93872 18.9999 7.93872C16.6999 7.93872 16.4275 7.94742 15.5193 7.98885C14.6796 8.0273 14.2234 8.1676 13.9201 8.28548C13.5459 8.42349 13.2074 8.64368 12.9298 8.92978C12.6437 9.20764 12.4235 9.54593 12.2852 9.92015C12.1674 10.2236 12.0271 10.6798 11.9888 11.5196C11.9474 12.4278 11.9385 12.7001 11.9385 15.0002C11.9385 17.3 11.9474 17.5724 11.9888 18.4808C12.0271 19.3206 12.1674 19.7765 12.2852 20.08C12.4235 20.4542 12.6434 20.7925 12.9295 21.0704C13.2074 21.3565 13.5457 21.5766 13.9199 21.7147C14.2234 21.8328 14.6796 21.9731 15.5193 22.0113C16.4275 22.0527 16.6997 22.0614 18.9997 22.0614C21.3 22.0614 21.5723 22.0527 22.4803 22.0113C23.3201 21.9731 23.7762 21.8328 24.0797 21.7147C24.8309 21.4249 25.4247 20.8312 25.7144 20.08C25.8323 19.7765 25.9726 19.3206 26.011 18.4808C26.0525 17.5724 26.0612 17.3 26.0612 15.0002C26.0612 12.7001 26.0525 12.4278 26.011 11.5196C25.9728 10.6798 25.8325 10.2236 25.7144 9.92015ZM18.9999 19.4229C16.5571 19.4229 14.5768 17.4428 14.5768 15C14.5768 12.5571 16.5571 10.577 18.9999 10.577C21.4426 10.577 23.4229 12.5571 23.4229 15C23.4229 17.4428 21.4426 19.4229 18.9999 19.4229ZM23.5977 11.4358C23.0269 11.4358 22.5641 10.973 22.5641 10.4022C22.5641 9.83134 23.0269 9.36855 23.5977 9.36855C24.1685 9.36855 24.6313 9.83134 24.6313 10.4022C24.6311 10.973 24.1685 11.4358 23.5977 11.4358Z" fill="#C5AC2D"/>
<g filter="url(#filter0_d)">
<path d="M19 0C10.717 0 4 6.717 4 15C4 23.283 10.717 30 19 30C27.283 30 34 23.283 34 15C34 6.717 27.283 0 19 0ZM27.5613 18.5511C27.5197 19.468 27.3739 20.094 27.161 20.6419C26.7135 21.7989 25.7989 22.7135 24.6419 23.161C24.0942 23.3739 23.468 23.5194 22.5513 23.5613C21.6328 23.6032 21.3394 23.6133 19.0002 23.6133C16.6608 23.6133 16.3676 23.6032 15.4489 23.5613C14.5322 23.5194 13.906 23.3739 13.3583 23.161C12.7833 22.9447 12.2629 22.6057 11.8326 22.1674C11.3945 21.7374 11.0555 21.2167 10.8392 20.6419C10.6264 20.0942 10.4806 19.468 10.4389 18.5513C10.3966 17.6326 10.3867 17.3392 10.3867 15C10.3867 12.6608 10.3966 12.3674 10.4387 11.4489C10.4803 10.532 10.6259 9.90601 10.8388 9.35806C11.0551 8.78334 11.3943 8.26263 11.8326 7.83257C12.2626 7.39426 12.7833 7.05528 13.3581 6.83899C13.906 6.62613 14.532 6.48056 15.4489 6.43867C16.3674 6.39679 16.6608 6.38672 19 6.38672C21.3392 6.38672 21.6326 6.39679 22.5511 6.4389C23.468 6.48056 24.094 6.62613 24.6419 6.83876C25.2167 7.05505 25.7374 7.39426 26.1677 7.83257C26.6057 8.26286 26.9449 8.78334 27.161 9.35806C27.3741 9.90601 27.5197 10.532 27.5616 11.4489C27.6034 12.3674 27.6133 12.6608 27.6133 15C27.6133 17.3392 27.6034 17.6326 27.5613 18.5511V18.5511Z" fill="#C5AC2D"/>
<path d="M15.4261 5.9392L15.4261 5.93919C16.356 5.89679 16.6583 5.88672 19 5.88672C21.3415 5.88672 21.644 5.89679 22.5738 5.93942L15.4261 5.9392ZM15.4261 5.9392C14.4631 5.98319 13.7833 6.13767 13.1794 6.37198C12.5392 6.61335 11.9589 6.99093 11.479 7.479C10.991 7.95878 10.6132 8.53909 10.3717 9.17944M15.4261 5.9392L10.3717 9.17944M10.3717 9.17944C10.1375 9.78332 9.98297 10.463 9.9392 11.426L10.3717 9.17944ZM27.6273 20.8225C27.862 20.2182 28.017 19.5381 28.0608 18.574L9.93942 18.5741C9.98319 19.537 10.1379 20.217 10.3722 20.8206C10.6136 21.4609 10.9912 22.0412 11.479 22.521C11.959 23.009 12.5391 23.3866 13.1796 23.628C13.7834 23.8623 14.4634 24.0168 15.4261 24.0608L15.4261 24.0608C16.3562 24.1032 16.6583 24.1133 19.0002 24.1133C21.3419 24.1133 21.6442 24.1032 22.5741 24.0608L22.5742 24.0608C23.5382 24.0168 24.2187 23.8619 24.8231 23.6271C26.111 23.1287 27.1291 22.1105 27.6273 20.8225ZM28.0608 18.5738C28.1034 17.644 28.1133 17.3414 28.1133 15C28.1133 12.6584 28.1034 12.3561 28.061 11.4261L28.061 11.4261C28.017 10.4633 27.8626 9.78353 27.6281 9.17959C27.3868 8.53899 27.0089 7.95892 26.5213 7.47904C26.0413 6.99104 25.4609 6.61314 24.8205 6.37171C24.2167 6.13769 23.537 5.9832 22.574 5.93943L28.0608 18.5738ZM4.5 15C4.5 6.99314 10.9931 0.5 19 0.5C27.0069 0.5 33.5 6.99314 33.5 15C33.5 23.0069 27.0069 29.5 19 29.5C10.9931 29.5 4.5 23.0069 4.5 15ZM9.88672 15C9.88672 17.3413 9.89655 17.644 9.93942 18.574L9.93919 11.4262C9.89656 12.356 9.88672 12.6586 9.88672 15Z" stroke="black"/>
</g>
<defs>
<filter id="filter0_d" x="0" y="0" width="38" height="38" filterUnits="userSpaceOnUse" color-interpolation-filters="sRGB">
<feFlood flood-opacity="0" result="BackgroundImageFix"/>
<feColorMatrix in="SourceAlpha" type="matrix" values="0 0 0 0 0 0 0 0 0 0 0 0 0 0 0 0 0 0 127 0"/>
<feOffset dy="4"/>
<feGaussianBlur stdDeviation="2"/>
<feColorMatrix type="matrix" values="0 0 0 0 0 0 0 0 0 0 0 0 0 0 0 0 0 0 0.25 0"/>
<feBlend mode="normal" in2="BackgroundImageFix" result="effect1_dropShadow"/>
<feBlend mode="normal" in="SourceGraphic" in2="effect1_dropShadow" result="shape"/>
</filter>
</defs>
</svg>
